PathFileType   4   (X/Y/Z)
DataRate	CameraRate	NumFrames	NumMarkers	Units	OrigDataRate	OrigDataStartFrame	OrigNumFrames
120.0	120.0	10	37	mm	120.0	55	96
Frame#	Time	midhip	hip_r	hip_l	knee_r	knee_l	ankle_r	ankle_l	midasis	asis_r	asis_l	psis_r	psis_l	epicondLat_r	epicondLat_l	epicondMed_r	epicondMed_l	malleolusLat_r	malleolusLat_l	malleolusMedv_r	malleolusMedv_l	neck	subclavicle_r	subclavicle_l	sternalnotch	xyphoidprocess	thighwand_r	thighwand_l	upperleg1_r	upperleg1_l	upperleg2_r	upperleg2_l	shankwand_r	shankwand_l	lowerleg1_r	lowerleg1_l	toe_r	toe_l
 	 	X1	Y1	Z1	X2	Y2	Z2	X3	Y3	Z3	X4	Y4	Z4	X5	Y5	Z5	X6	Y6	Z6	X7	Y7	Z7	X8	Y8	Z8	X9	Y9	Z9	X10	Y10	Z10	X11	Y11	Z11	X12	Y12	Z12	X13	Y13	Z13	X14	Y14	Z14	X15	Y15	Z15	X16	Y16	Z16	X17	Y17	Z17	X18	Y18	Z18	X19	Y19	Z19	X20	Y20	Z20	X21	Y21	Z21	X22	Y22	Z22	X23	Y23	Z23	X24	Y24	Z24	X25	Y25	Z25	X26	Y26	Z26	X27	Y27	Z27	X28	Y28	Z28	X29	Y29	Z29	X30	Y30	Z30	X31	Y31	Z31	X32	Y32	Z32	X33	Y33	Z33	X34	Y34	Z34	X35	Y35	Z35	X36	Y36	Z36	X37	Y37	Z37

	55	0.54167	1192.212	596.202	-300.989	1191.135	603.705	-244.343	1204.678	614.597	-360.495	1153.833	304.170	-217.157	1328.337	339.538	-351.096	899.916	152.748	-226.871	1306.194	54.197	-369.169	1241.413	670.709	-291.574	1231.163	662.466	-203.664	1251.663	678.953	-379.484	1103.164	686.516	-261.987	1111.854	689.804	-346.267	1137.502	310.070	-174.560	1328.705	338.064	-399.072	1170.279	289.137	-260.679	1330.748	338.189	-305.792	891.545	164.855	-196.778	1297.349	56.857	-400.329	902.127	158.808	-255.686	1305.322	51.359	-335.572	1183.947	1005.450	-325.593	1278.877	943.200	-276.570	1278.167	930.895	-366.562	1263.420	951.325	-315.235	1307.580	816.362	-302.694	1289.452	363.339	-201.407	1358.630	433.028	-455.209	1217.182	430.756	-184.982	1331.621	485.293	-375.783	1192.920	346.884	-182.962	1359.926	408.901	-355.618	974.056	210.969	-119.066	1410.089	157.206	-337.100	1020.839	227.528	-181.294	1352.754	210.979	-356.030	908.828	68.738	-218.194	1390.933	36.767	-375.993
	56	0.55000	1203.739	599.506	-301.512	1202.730	606.994	-244.936	1216.502	617.794	-361.070	1177.164	307.294	-215.754	1331.608	339.225	-351.525	924.270	154.802	-229.019	1306.210	54.171	-369.184	1253.204	673.887	-292.115	1242.793	665.723	-204.325	1263.614	682.052	-379.906	1115.055	689.644	-262.933	1123.950	693.455	-347.209	1159.669	312.893	-173.581	1332.559	337.974	-399.499	1194.886	291.271	-258.289	1330.618	338.474	-305.723	915.161	167.325	-199.313	1297.434	56.884	-400.359	927.951	159.346	-257.802	1305.376	51.378	-335.587	1195.573	1009.191	-326.058	1289.833	947.082	-276.028	1289.767	934.224	-365.910	1274.820	954.975	-314.906	1318.393	820.011	-301.130	1309.801	370.514	-197.468	1366.087	432.708	-455.038	1234.451	435.857	-183.682	1339.295	485.577	-375.337	1213.383	350.792	-180.946	1363.996	407.961	-354.534	995.520	214.824	-120.517	1411.156	156.068	-337.168	1044.337	230.659	-181.749	1354.388	210.418	-356.310	935.165	71.329	-216.589	1390.972	36.736	-376.079
	57	0.55833	1215.138	603.010	-301.939	1214.251	610.573	-245.498	1228.129	621.055	-361.648	1200.267	311.128	-214.415	1334.207	339.051	-351.885	949.523	155.755	-231.070	1306.221	54.182	-369.194	1264.914	677.232	-292.805	1254.435	669.317	-205.112	1275.392	685.146	-380.499	1126.842	693.112	-263.781	1135.886	697.217	-348.074	1181.742	316.330	-172.632	1335.762	337.975	-399.848	1219.343	294.651	-255.999	1331.233	338.849	-305.839	939.619	168.596	-201.757	1297.494	56.935	-400.379	954.481	159.005	-259.923	1305.458	51.472	-335.591	1206.979	1013.208	-326.357	1300.726	951.222	-275.318	1301.212	937.922	-365.134	1286.096	958.846	-314.425	1329.192	823.973	-299.612	1329.913	378.367	-193.939	1372.987	432.300	-454.718	1252.033	441.480	-182.353	1346.449	485.817	-374.828	1234.154	355.608	-179.021	1368.067	407.167	-353.667	1017.557	218.009	-121.942	1411.918	155.253	-337.264	1067.699	233.678	-182.071	1355.718	210.249	-356.513	962.947	73.158	-215.241	1391.005	36.723	-376.147
	58	0.56667	1226.498	606.675	-302.323	1225.720	614.374	-246.071	1239.617	624.362	-362.262	1223.110	315.462	-213.161	1336.254	339.050	-352.178	975.601	155.587	-232.940	1306.235	54.231	-369.201	1276.574	680.699	-293.643	1266.093	673.166	-206.014	1287.055	688.231	-381.272	1138.558	696.866	-264.498	1147.688	701.035	-348.832	1203.685	320.193	-171.732	1338.355	338.067	-400.122	1242.268	299.144	-254.073	1332.750	339.465	-306.102	964.862	168.633	-204.013	1297.529	57.013	-400.390	981.602	157.840	-261.872	1305.487	51.650	-335.589	1218.364	1017.338	-326.467	1311.653	955.575	-274.535	1312.597	941.905	-364.293	1297.296	962.866	-313.845	1340.110	828.198	-298.155	1349.779	386.748	-190.829	1379.247	431.719	-454.341	1269.596	447.385	-180.961	1353.117	486.185	-374.763	1254.110	360.949	-177.301	1372.270	406.531	-353.252	1040.132	220.369	-123.270	1412.426	154.744	-337.427	1091.355	236.186	-182.580	1356.680	210.337	-356.716	992.000	74.218	-214.179	1391.033	36.722	-376.204
	59	0.57500	1237.931	610.434	-302.708	1237.146	618.316	-246.674	1251.017	627.681	-362.920	1245.676	320.100	-212.002	1337.852	339.228	-352.419	1002.440	154.344	-234.553	1306.256	54.316	-369.212	1288.199	684.231	-294.599	1277.747	677.174	-207.003	1298.652	691.289	-382.195	1150.231	700.818	-265.074	1159.388	704.850	-349.469	1225.478	324.302	-170.888	1340.382	338.246	-400.342	1265.323	304.095	-251.857	1333.702	340.487	-306.207	990.851	167.464	-205.990	1297.536	57.120	-400.394	1009.189	155.933	-263.537	1305.385	51.863	-335.590	1229.779	1021.440	-326.482	1322.612	959.969	-273.841	1323.998	946.017	-363.474	1308.464	966.949	-313.207	1351.156	832.515	-296.866	1369.375	395.499	-188.127	1384.817	430.911	-453.994	1286.514	453.433	-179.503	1359.364	486.595	-375.238	1274.178	367.069	-175.418	1375.937	405.758	-352.985	1063.247	221.800	-124.432	1412.729	154.514	-337.681	1115.267	238.163	-183.154	1357.214	210.514	-357.025	1022.199	74.545	-213.388	1391.054	36.726	-376.255
	60	0.58333	1249.450	614.199	-303.079	1248.525	622.303	-247.304	1262.371	630.967	-363.607	1267.946	324.874	-210.945	1339.084	339.568	-352.633	1029.989	152.111	-235.845	1306.287	54.436	-369.229	1299.794	687.763	-295.623	1289.367	681.239	-208.041	1310.221	694.287	-383.205	1161.886	704.856	-265.522	1171.021	708.603	-349.986	1247.099	328.505	-170.101	1341.893	338.503	-400.539	1288.649	309.844	-250.083	1334.264	341.309	-306.314	1017.559	165.161	-207.606	1297.521	57.259	-400.397	1037.319	153.374	-264.895	1305.274	52.065	-335.593	1241.137	1025.525	-326.404	1333.581	964.221	-273.130	1335.361	950.142	-362.665	1319.631	970.996	-312.545	1362.184	836.728	-295.799	1388.665	404.468	-185.846	1389.699	429.865	-453.749	1302.731	459.546	-177.556	1365.319	486.498	-375.469	1294.293	373.509	-173.599	1379.074	404.865	-352.802	1086.936	222.249	-125.364	1412.867	154.531	-338.036	1139.342	239.631	-183.549	1357.398	210.749	-357.397	1053.465	74.203	-212.825	1391.066	36.725	-376.307
	61	0.59167	1261.014	617.873	-303.394	1259.841	626.240	-247.939	1273.708	634.157	-364.293	1289.888	329.656	-210.004	1340.032	340.035	-352.852	1058.203	148.994	-236.772	1306.331	54.594	-369.260	1311.348	691.218	-296.651	1300.912	685.260	-209.083	1321.785	697.177	-384.220	1173.541	708.859	-265.870	1182.626	712.230	-350.398	1268.532	332.690	-169.374	1342.959	338.832	-400.747	1312.364	315.867	-249.330	1334.890	341.549	-306.377	1044.969	161.820	-208.797	1297.491	57.428	-400.406	1065.965	150.275	-265.878	1305.129	52.222	-335.596	1252.504	1029.546	-326.227	1344.568	968.248	-272.354	1346.715	954.207	-361.867	1330.818	974.903	-311.893	1373.157	840.741	-294.943	1407.614	413.504	-184.034	1393.943	428.606	-453.654	1319.171	465.685	-175.824	1370.360	485.642	-375.637	1314.600	379.157	-172.428	1381.740	403.786	-352.679	1111.252	221.717	-126.012	1412.886	154.754	-338.488	1163.847	240.425	-183.689	1357.330	211.104	-357.711	1085.687	73.267	-212.427	1391.069	36.715	-376.367
	62	0.60000	1272.600	621.373	-303.617	1271.071	630.032	-248.544	1285.039	637.184	-364.936	1311.463	334.352	-209.200	1340.782	340.590	-353.106	1087.039	145.115	-237.312	1306.397	54.792	-369.309	1322.847	694.521	-297.622	1312.343	689.143	-210.088	1333.352	699.899	-385.156	1185.201	712.714	-266.154	1194.233	715.664	-350.728	1289.762	336.774	-168.713	1343.676	339.224	-401.000	1334.870	321.194	-248.404	1335.529	341.484	-306.443	1073.066	157.558	-209.524	1297.460	57.631	-400.426	1095.025	146.666	-266.448	1304.994	52.444	-335.620	1263.930	1033.312	-326.023	1355.626	971.995	-271.663	1358.091	958.091	-361.114	1342.036	978.574	-311.271	1384.204	844.505	-294.292	1426.199	422.474	-182.782	1397.643	427.189	-453.740	1336.822	471.803	-175.414	1374.966	484.350	-375.971	1334.585	384.383	-171.705	1384.155	402.425	-352.722	1136.243	220.248	-126.337	1412.830	155.140	-339.028	1188.674	240.653	-183.641	1356.957	211.584	-357.981	1118.748	71.823	-212.126	1391.071	36.694	-376.446
	63	0.60833	1284.180	624.619	-303.723	1282.197	633.599	-249.082	1296.364	639.974	-365.495	1332.629	338.883	-208.561	1341.441	341.198	-353.418	1116.462	140.595	-237.458	1306.494	55.034	-369.381	1334.274	697.597	-298.483	1323.631	692.807	-211.022	1344.918	702.386	-385.943	1196.855	716.324	-266.400	1205.860	718.841	-351.002	1310.775	340.703	-168.124	1344.166	339.673	-401.316	1356.215	326.475	-247.297	1335.374	341.771	-306.999	1101.838	152.502	-209.770	1297.446	57.873	-400.467	1124.557	142.536	-266.593	1305.232	52.798	-335.653	1275.210	1036.685	-325.808	1366.715	975.328	-271.099	1369.539	961.690	-360.468	1353.298	981.930	-310.687	1395.481	847.932	-293.913	1444.410	431.266	-182.203	1400.920	425.684	-454.017	1354.095	477.741	-175.214	1380.421	483.220	-375.937	1354.054	389.859	-170.968	1386.343	400.956	-353.087	1161.938	217.928	-126.318	1412.760	155.650	-339.647	1213.657	240.455	-183.460	1356.413	212.129	-358.321	1152.540	69.976	-211.847	1391.079	36.668	-376.555
	64	0.61667	1295.722	627.541	-303.695	1293.209	636.872	-249.521	1307.680	642.464	-365.937	1353.344	343.185	-208.116	1342.111	341.828	-353.797	1146.443	135.552	-237.218	1306.633	55.330	-369.481	1345.621	700.382	-299.197	1334.764	696.187	-211.858	1356.478	704.577	-386.535	1208.485	719.613	-266.624	1217.508	721.698	-351.238	1331.561	344.434	-167.620	1344.559	340.174	-401.706	1377.569	332.259	-246.750	1335.003	342.154	-308.033	1131.279	146.784	-209.539	1297.464	58.166	-400.532	1154.629	137.971	-266.342	1305.551	53.218	-335.726	1286.392	1039.660	-325.579	1377.878	978.201	-270.670	1381.052	964.998	-359.942	1364.618	984.912	-310.156	1406.973	850.977	-293.883	1462.250	439.784	-182.408	1403.911	424.164	-454.479	1370.487	483.352	-174.720	1385.858	482.174	-375.842	1373.636	395.624	-170.438	1388.324	399.524	-353.750	1188.349	214.868	-125.956	1412.744	156.250	-340.324	1239.067	239.664	-183.022	1356.028	212.710	-358.838	1186.950	67.838	-211.513	1391.111	36.640	-376.697
